<svg width="83" height="40" viewBox="0 0 83 40" fill="none" xmlns="http://www.w3.org/2000/svg">
<g clip-path="url(#clip0_5464_1250)">
<g clip-path="url(#clip1_5464_1250)">
<path d="M16.8927 3.56668C16.8507 3.16791 16.7878 3 16.6409 3C16.494 3 16.4101 3.14692 16.3261 3.33581L10.1566 16.5165L3.73528 3.31482C3.63036 3.08395 3.54642 3 3.42051 3C3.2946 3 3.21066 3.14692 3.18968 3.37779L1.67878 17.0622C1.59484 17.8597 1.53188 18.6783 0.839389 18.8042C0.524618 18.8672 0.377725 18.8672 0.209847 18.8672C0.104924 18.8672 0 18.9091 0 18.9721C0 19.119 0.146893 19.161 0.35674 19.161C0.923328 19.161 1.93059 19.098 2.11946 19.098C2.28734 19.098 3.2946 19.161 4.07104 19.161C4.32285 19.161 4.44876 19.119 4.44876 18.9721C4.44876 18.9091 4.36482 18.8672 4.28088 18.8672C4.15498 18.8672 3.8402 18.8462 3.48346 18.7622C3.16869 18.6993 2.93786 18.4264 2.93786 18.1116C2.93786 17.7548 2.93786 17.377 2.95885 17.0412L3.79823 7.3026H3.88217C4.11301 7.86929 6.46329 12.9065 6.65216 13.2843C6.75708 13.4942 8.56177 17.1251 9.10737 18.1536C9.50608 18.9091 9.611 19.119 9.7579 19.119C9.94676 19.119 10.0097 18.9301 10.4504 18.0066L15.5917 7.09272H15.6546L16.6619 17.9227C16.7038 18.3005 16.6829 18.6573 16.5779 18.6783C16.473 18.6993 16.431 18.7412 16.431 18.8252C16.431 18.9301 16.536 18.9931 17.0186 19.0351C17.795 19.098 20.0614 19.161 20.5231 19.161C20.7749 19.161 20.9637 19.098 20.9637 18.9721C20.9637 18.8882 20.9008 18.8672 20.7959 18.8672C20.586 18.8672 20.0404 18.8672 19.4319 18.6783C18.5295 18.3844 18.3826 17.2091 18.2987 16.4535L16.8927 3.56668Z" fill="white"/>
<path d="M23.3729 11.2064C23.3729 14.9843 25.7651 19.4548 31.515 19.4548C36.5723 19.4548 39.8879 15.572 39.8879 10.8706C39.8879 5.98034 36.3624 3 31.6409 3C25.8491 3 23.3729 7.80632 23.3729 11.2064ZM25.3664 10.6188C25.3664 6.02232 27.9895 3.7136 31.494 3.7136C34.8096 3.7136 37.8733 6.42109 37.8733 11.4583C37.8733 17.5659 33.9702 18.6573 32.0815 18.6573C28.3043 18.6573 25.3664 15.509 25.3664 10.6188Z" fill="white"/>
<path d="M49.9122 4.19633L52.5562 4.23831C54.5708 4.28029 55.0744 4.76302 55.1374 5.39267L55.1583 5.62354C55.1793 5.91738 55.2213 5.98034 55.3262 5.98034C55.4102 5.98034 55.4731 5.89639 55.4731 5.70749C55.4731 5.47662 55.5361 4.02843 55.5361 3.39878C55.5361 3.27285 55.5361 3.14692 55.4312 3.14692C55.3472 3.14692 55.1583 3.20988 54.8436 3.25186C54.5078 3.31482 54.0252 3.3568 53.3537 3.3568H45.4844C45.2326 3.3568 44.4352 3.31482 43.8266 3.25186C43.26 3.20988 43.0502 3 42.9033 3C42.8193 3 42.7354 3.27285 42.6934 3.39878C42.6515 3.56668 42.2318 5.37168 42.2318 5.58156C42.2318 5.70749 42.2737 5.77046 42.3367 5.77046C42.4206 5.77046 42.4836 5.72848 42.5465 5.56057C42.6095 5.41366 42.6724 5.26674 42.9033 4.90994C43.239 4.40622 43.7427 4.2593 45.0437 4.23831L48.1495 4.19633V13.0744C48.1495 15.0893 48.1494 16.7473 48.0445 17.6289C47.9606 18.2375 47.8557 18.6993 47.436 18.7832C47.2471 18.8252 46.9953 18.8672 46.8064 18.8672C46.6805 18.8672 46.6385 18.9301 46.6385 18.9931C46.6385 19.119 46.7435 19.161 46.9743 19.161C47.6039 19.161 48.9259 19.098 49.0308 19.098C49.1357 19.098 50.4578 19.161 51.6119 19.161C51.8428 19.161 51.9477 19.098 51.9477 18.9931C51.9477 18.9301 51.9057 18.8672 51.7798 18.8672C51.5909 18.8672 51.1293 18.8252 50.8355 18.7832C50.206 18.6993 50.08 18.2375 50.0171 17.6289C49.9122 16.7473 49.9122 15.0893 49.9122 13.0744V4.19633Z" fill="white"/>
<path d="M61.0006 13.0744C61.0006 15.0893 61.0006 16.7473 60.8957 17.6289C60.8118 18.2375 60.7068 18.6993 60.2871 18.7832C60.0983 18.8252 59.8465 18.8672 59.6576 18.8672C59.5317 18.8672 59.4897 18.9301 59.4897 18.9931C59.4897 19.119 59.5947 19.161 59.8255 19.161C60.1403 19.161 60.6229 19.119 61.0426 19.119C61.4833 19.098 61.84 19.098 61.882 19.098C62.1968 19.098 62.7004 19.119 63.5188 19.161C64.3372 19.182 65.4914 19.224 67.0652 19.224C67.8836 19.224 68.0515 19.224 68.1984 18.6783C68.3033 18.2375 68.4712 16.8103 68.4712 16.6424C68.4712 16.4955 68.4712 16.3276 68.3453 16.3276C68.2403 16.3276 68.1984 16.4115 68.1564 16.6424C68.0095 17.5029 67.7577 17.9227 67.2121 18.1536C66.6665 18.3844 65.7432 18.3844 65.1976 18.3844C63.1411 18.3844 62.8263 18.1116 62.7633 16.6634C62.7424 16.2226 62.7633 13.788 62.7633 13.0744V11.2274C62.7633 11.1435 62.8053 11.0805 62.9102 11.0805C63.267 11.0805 65.3445 11.1225 65.911 11.1854C66.7295 11.2694 66.9183 11.6262 67.0023 11.92C67.0862 12.1929 67.0862 12.4028 67.0862 12.6126C67.0862 12.7176 67.1282 12.8015 67.2331 12.8015C67.38 12.8015 67.38 12.5707 67.38 12.4028C67.38 12.2558 67.422 11.4793 67.4639 11.0595C67.5269 10.3669 67.6318 10.0101 67.6318 9.88417C67.6318 9.75824 67.5898 9.71626 67.5269 9.71626C67.4429 9.71626 67.359 9.8212 67.2121 9.98911C67.0232 10.199 66.7294 10.241 66.2258 10.2829C65.7432 10.3249 63.162 10.3249 62.8892 10.3249C62.7843 10.3249 62.7633 10.262 62.7633 10.115V4.32226C62.7633 4.17535 62.8053 4.11238 62.8892 4.11238C63.1201 4.11238 65.4074 4.13337 65.7642 4.17535C66.8973 4.30127 67.1072 4.55313 67.2541 4.88895C67.359 5.14081 67.38 5.49761 67.38 5.64453C67.38 5.81243 67.422 5.91738 67.5479 5.91738C67.6318 5.91738 67.6738 5.79145 67.6947 5.6865C67.7367 5.43464 67.7787 4.51116 67.7997 4.30127C67.8626 3.7136 67.9676 3.46174 67.9676 3.31482C67.9676 3.20988 67.9466 3.12593 67.8836 3.12593C67.7787 3.12593 67.6948 3.20988 67.5898 3.23087C67.422 3.27285 67.0862 3.31482 66.6875 3.33581C66.2048 3.3568 62.0289 3.3568 61.882 3.3568L61.0216 3.31482C60.5599 3.29384 59.9934 3.29384 59.5107 3.29384C59.2799 3.29384 59.175 3.33581 59.175 3.46174C59.175 3.5457 59.2589 3.58767 59.3428 3.58767C59.5317 3.58767 59.8884 3.60866 60.0563 3.65064C60.7488 3.79756 60.9167 4.13337 60.9587 4.84697C61.0006 5.5186 61.0006 6.10627 61.0006 9.38045V13.0744Z" fill="white"/>
<path d="M76.6206 9.38045C76.6206 6.10627 76.6206 5.5186 76.6626 4.84697C76.7046 4.11238 76.8725 3.75558 77.481 3.65064C77.7328 3.60866 78.0266 3.58767 78.1735 3.58767C78.2575 3.58767 78.3414 3.5457 78.3414 3.46174C78.3414 3.33581 78.2365 3.29384 78.0056 3.29384C77.3761 3.29384 75.8442 3.3568 75.7393 3.3568C75.6344 3.3568 74.3123 3.29384 73.368 3.29384C73.1372 3.29384 73.0323 3.33581 73.0323 3.46174C73.0323 3.5457 73.1162 3.58767 73.2001 3.58767C73.389 3.58767 73.7457 3.60866 73.9136 3.65064C74.6061 3.79756 74.774 4.13337 74.816 4.84697C74.8579 5.5186 74.8579 6.10627 74.8579 9.38045V13.0744C74.8579 15.0893 74.8579 16.7473 74.753 17.6289C74.6691 18.2375 74.5641 18.6993 74.1444 18.7832C73.9556 18.8252 73.7038 18.8672 73.5149 18.8672C73.389 18.8672 73.347 18.9301 73.347 18.9931C73.347 19.119 73.452 19.161 73.6828 19.161C73.9976 19.161 74.4592 19.14 74.8789 19.119C75.2986 19.119 75.6553 19.098 75.7393 19.098C76.3478 19.098 76.9984 19.119 77.8797 19.161C78.7611 19.182 79.8523 19.224 81.3632 19.224C82.4754 19.224 82.5383 19.14 82.6852 18.6573C82.8531 18.0486 83 16.7893 83 16.5584C83 16.3276 82.979 16.2436 82.8741 16.2436C82.7482 16.2436 82.7062 16.3486 82.6852 16.5165C82.6223 16.9152 82.4124 17.44 82.1396 17.7758C81.636 18.3844 80.7127 18.4054 79.6005 18.4054C77.9637 18.4054 77.4181 18.2585 77.0823 17.9227C76.7046 17.5449 76.6206 16.2016 76.6206 13.1164V9.38045Z" fill="white"/>
<path d="M5.3116 23.2504C4.9844 22.3996 4.72265 21.7232 4.72265 21.4396C4.72265 21.2869 4.76627 21.1124 5.00622 21.0033C5.20253 20.916 5.59517 20.8942 5.83511 20.8942C5.9878 20.8942 6.05324 20.8506 6.05324 20.7415C6.05324 20.6324 5.85693 20.5888 5.46429 20.5888C4.63539 20.5888 3.65381 20.6542 3.43568 20.6542C3.17392 20.6542 1.93057 20.5888 0.883546 20.5888C0.534537 20.5888 0.316406 20.6106 0.316406 20.7415C0.316406 20.8287 0.360032 20.8942 0.490911 20.8942C0.621789 20.8942 0.992611 20.8942 1.31981 20.9815C2.08326 21.1996 2.41046 21.4396 2.89035 22.6614L8.23455 36.0351C8.649 37.0823 8.75807 37.3877 9.01982 37.3877C9.23795 37.3877 9.3252 37.0386 9.93597 35.7296C10.4377 34.6606 11.4193 32.3044 12.7499 29.1191C13.8623 26.4357 14.953 23.8176 15.1929 23.2068C15.7819 21.7232 16.1091 21.3523 16.3926 21.156C16.8071 20.8942 17.287 20.8942 17.4397 20.8942C17.6142 20.8942 17.7014 20.8506 17.7014 20.7415C17.7014 20.6324 17.5705 20.5888 17.3306 20.5888C16.698 20.5888 15.7601 20.6542 15.6292 20.6542C15.3674 20.6542 14.364 20.5888 13.4915 20.5888C13.1425 20.5888 13.0116 20.6324 13.0116 20.7633C13.0116 20.8724 13.1207 20.8942 13.2516 20.8942C13.4915 20.8942 13.8187 20.8942 14.0805 20.9815C14.2986 21.0905 14.364 21.3087 14.364 21.4832C14.364 21.6796 14.2768 21.985 14.1677 22.3123C13.6878 23.8831 10.7649 31.4972 9.49971 34.4206L5.3116 23.2504Z" fill="white"/>
<path d="M24.0967 26.9156C24.0967 23.5122 24.0967 22.9013 24.1404 22.2032C24.184 21.4396 24.3585 21.0687 24.9475 20.9596C25.2092 20.916 25.3401 20.8942 25.4928 20.8942C25.58 20.8942 25.6673 20.8506 25.6673 20.7633C25.6673 20.6324 25.5582 20.5888 25.3183 20.5888C24.6639 20.5888 23.2897 20.6542 23.1806 20.6542C23.0715 20.6542 21.6973 20.5888 20.9775 20.5888C20.7375 20.5888 20.6285 20.6324 20.6285 20.7633C20.6285 20.8506 20.7157 20.8942 20.803 20.8942C20.9557 20.8942 21.2392 20.916 21.4792 20.9815C21.9591 21.0905 22.1772 21.4614 22.2208 22.2032C22.2644 22.9013 22.2644 23.5122 22.2644 26.9156V30.7554C22.2644 32.8498 22.2644 34.5733 22.1554 35.4896C22.0681 36.1223 21.9591 36.6023 21.5228 36.6896C21.3265 36.7332 21.0647 36.7768 20.8684 36.7768C20.7375 36.7768 20.6939 36.8423 20.6939 36.9077C20.6939 37.0386 20.803 37.0823 21.0429 37.0823C21.6973 37.0823 23.0715 37.0168 23.1806 37.0168C23.2897 37.0168 24.6639 37.0823 25.8636 37.0823C26.1035 37.0823 26.2126 37.0168 26.2126 36.9077C26.2126 36.8423 26.169 36.7768 26.0381 36.7768C25.8418 36.7768 25.3619 36.7332 25.0565 36.6896C24.4021 36.6023 24.2712 36.1223 24.2058 35.4896C24.0967 34.5733 24.0967 32.8498 24.0967 30.7554V26.9156Z" fill="white"/>
<path d="M34.7073 37.3877C35.8852 37.3877 37.0631 37.1259 38.001 36.4714C39.5061 35.4024 39.8552 33.7443 39.8552 32.8498C39.8552 31.1045 39.2444 29.7518 36.6704 27.7229L36.0597 27.2429C33.9656 25.6066 33.3985 24.8212 33.3985 23.5777C33.3985 21.985 34.5764 21.0469 36.0815 21.0469C38.0883 21.0469 38.6772 21.9632 38.8081 22.2032C38.939 22.4432 39.0699 23.0322 39.0917 23.294C39.1135 23.4686 39.1353 23.5777 39.2662 23.5777C39.3753 23.5777 39.4189 23.4249 39.4189 23.0759C39.4189 21.5923 39.5061 20.8724 39.5061 20.7633C39.5061 20.6542 39.4625 20.6106 39.288 20.6106C39.1135 20.6106 38.939 20.5888 38.5246 20.5015C37.9792 20.3706 37.3466 20.2833 36.4959 20.2833C33.7257 20.2833 31.9806 21.876 31.9806 24.2103C31.9806 25.6939 32.5041 27.0465 34.8163 28.9446L35.7979 29.7518C37.6738 31.3008 38.3064 32.1735 38.3064 33.6788C38.3064 35.0751 37.2812 36.5805 35.1872 36.5805C33.7257 36.5805 32.286 35.9696 31.9588 34.3552C31.8934 34.0497 31.8934 33.7443 31.8934 33.5479C31.8934 33.3734 31.8716 33.308 31.7407 33.308C31.6316 33.308 31.588 33.417 31.5662 33.657C31.5444 34.0061 31.4571 34.8788 31.4571 35.9696C31.4571 36.5587 31.4789 36.6459 31.7843 36.7986C32.6786 37.235 33.682 37.3877 34.7073 37.3877Z" fill="white"/>
<path d="M44.4427 28.8137C44.4427 32.7407 46.9294 37.3877 52.9062 37.3877C58.1631 37.3877 61.6096 33.3516 61.6096 28.4646C61.6096 23.3813 57.945 20.2833 53.0371 20.2833C47.0167 20.2833 44.4427 25.2794 44.4427 28.8137ZM46.515 28.2028C46.515 23.4249 49.2416 21.0251 52.8844 21.0251C56.3308 21.0251 59.5155 23.8395 59.5155 29.0755C59.5155 35.4242 55.4583 36.5587 53.4951 36.5587C49.5688 36.5587 46.515 33.2861 46.515 28.2028Z" fill="white"/>
<path d="M67.843 23.6649C68.541 24.4503 71.0059 27.1992 73.5362 29.9263C75.8484 32.4135 78.9895 35.6205 79.2294 35.8387C80.3855 36.995 80.6473 37.235 80.8218 37.235C80.9745 37.235 81.0181 37.1259 81.0181 35.686L81.0617 22.9013C81.0617 21.5923 81.149 21.1124 81.8688 20.9596C82.1306 20.8942 82.2833 20.8942 82.3923 20.8942C82.545 20.8942 82.6323 20.8287 82.6323 20.7415C82.6323 20.6106 82.4796 20.5888 82.2396 20.5888C81.3453 20.5888 80.6255 20.6542 80.3855 20.6542C80.1456 20.6542 79.0986 20.5888 78.117 20.5888C77.8552 20.5888 77.6807 20.6106 77.6807 20.7415C77.6807 20.8287 77.7025 20.8942 77.8552 20.8942C78.0297 20.8942 78.5314 20.916 78.9241 21.0033C79.6003 21.1778 79.753 21.6578 79.7748 23.0759L80.0147 34.1588C79.3167 33.4389 76.9391 30.7772 74.7796 28.4646C71.4204 24.8649 68.1702 21.3523 67.843 20.9815C67.6249 20.7633 67.2541 20.2833 67.0796 20.2833C66.9051 20.2833 66.8396 20.5233 66.8396 21.3742L66.8178 33.8752C66.8178 35.8605 66.7087 36.4932 66.1634 36.6459C65.8362 36.755 65.4436 36.7768 65.2691 36.7768C65.16 36.7768 65.0946 36.8205 65.0946 36.9077C65.0946 37.0604 65.2254 37.0823 65.4436 37.0823C66.4252 37.0823 67.3413 37.0168 67.5376 37.0168C67.734 37.0168 68.6065 37.0823 69.8498 37.0823C70.1116 37.0823 70.2425 37.0386 70.2425 36.9077C70.2425 36.8205 70.177 36.7768 70.0679 36.7768C69.8716 36.7768 69.3917 36.755 68.9773 36.6459C68.3883 36.4714 68.1702 35.9042 68.1266 34.1152L67.843 23.6649Z" fill="white"/>
</g>
</g>
<defs>
<clipPath id="clip0_5464_1250">
<rect width="83" height="40" fill="white"/>
</clipPath>
<clipPath id="clip1_5464_1250">
<rect width="83" height="34.3877" fill="white" transform="translate(0 3)"/>
</clipPath>
</defs>
</svg>
